<svg width="237" height="24" viewBox="0 0 237 24" fill="none" xmlns="http://www.w3.org/2000/svg">
<g clip-path="url(#clip0_2865_4281)">
<g clip-path="url(#clip1_2865_4281)">
<path fill-rule="evenodd" clip-rule="evenodd" d="M86 11.5704C86 5.1801 80.8515 0 74.5014 0C68.1485 0.00143732 63 5.1801 63 11.5719C63 17.3456 67.2056 22.1319 72.7019 23V14.9151H69.7842V11.5719H72.7048V9.02062C72.7048 6.12155 74.4224 4.52037 77.0484 4.52037C78.3075 4.52037 79.6226 4.74603 79.6226 4.74603V7.59193H78.1724C76.7451 7.59193 76.2995 8.4845 76.2995 9.40008V11.5704H79.4875L78.9787 14.9136H76.2981V22.9986C81.7944 22.1304 86 17.3441 86 11.5704Z" fill="#23A6F0"/>
</g>
<g clip-path="url(#clip2_2865_4281)">
<path d="M119 1C116.015 1 115.64 1.01375 114.467 1.066C113.294 1.121 112.495 1.30525 111.795 1.5775C111.061 1.85363 110.396 2.28676 109.847 2.84663C109.287 3.39621 108.854 4.06108 108.577 4.795C108.305 5.4935 108.12 6.29375 108.066 7.4625C108.014 8.63812 108 9.01213 108 12.0014C108 14.9879 108.014 15.3619 108.066 16.5347C108.121 17.7063 108.305 18.5051 108.577 19.205C108.859 19.9282 109.235 20.5415 109.847 21.1534C110.457 21.7652 111.07 22.142 111.794 22.4225C112.495 22.6947 113.292 22.8804 114.464 22.934C115.638 22.9862 116.012 23 119 23C121.988 23 122.361 22.9862 123.535 22.934C124.705 22.879 125.507 22.6947 126.206 22.4225C126.94 22.1462 127.604 21.7131 128.153 21.1534C128.765 20.5415 129.141 19.9282 129.423 19.205C129.693 18.5051 129.879 17.7063 129.934 16.5347C129.986 15.3619 130 14.9879 130 12C130 9.01213 129.986 8.63813 129.934 7.46388C129.879 6.29375 129.693 5.4935 129.423 4.795C129.146 4.06106 128.713 3.39618 128.153 2.84663C127.604 2.28655 126.939 1.85339 126.205 1.5775C125.504 1.30525 124.704 1.11963 123.533 1.066C122.359 1.01375 121.986 1 118.997 1H119.001H119ZM118.014 2.98275H119.001C121.938 2.98275 122.286 2.99238 123.445 3.046C124.518 3.09413 125.101 3.27425 125.489 3.42412C126.001 3.6235 126.369 3.86275 126.754 4.24775C127.139 4.63275 127.377 4.9985 127.576 5.51275C127.727 5.89913 127.906 6.48213 127.954 7.55463C128.008 8.71375 128.019 9.06163 128.019 11.9973C128.019 14.9329 128.008 15.2821 127.954 16.4412C127.906 17.5138 127.726 18.0954 127.576 18.4831C127.4 18.9607 127.118 19.3926 126.752 19.7467C126.367 20.1318 126.002 20.3696 125.487 20.569C125.102 20.7203 124.519 20.899 123.445 20.9485C122.286 21.0007 121.938 21.0131 119.001 21.0131C116.064 21.0131 115.715 21.0007 114.556 20.9485C113.484 20.899 112.902 20.7203 112.514 20.569C112.036 20.3929 111.604 20.1119 111.249 19.7467C110.883 19.392 110.601 18.9598 110.424 18.4818C110.274 18.0954 110.094 17.5124 110.046 16.4399C109.994 15.2808 109.983 14.9329 109.983 11.9945C109.983 9.0575 109.994 8.711 110.046 7.55187C110.095 6.47937 110.274 5.89638 110.426 5.50863C110.625 4.99575 110.864 4.62862 111.249 4.24362C111.634 3.85862 112 3.62075 112.514 3.42138C112.902 3.27013 113.484 3.09138 114.556 3.04188C115.571 2.99513 115.964 2.98138 118.014 2.98V2.98275ZM124.873 4.80875C124.699 4.80875 124.528 4.84289 124.367 4.90923C124.207 4.97557 124.062 5.0728 123.939 5.19537C123.817 5.31794 123.719 5.46346 123.653 5.62361C123.587 5.78376 123.553 5.95541 123.553 6.12875C123.553 6.30209 123.587 6.47374 123.653 6.63389C123.719 6.79404 123.817 6.93956 123.939 7.06213C124.062 7.1847 124.207 7.28193 124.367 7.34827C124.528 7.41461 124.699 7.44875 124.873 7.44875C125.223 7.44875 125.558 7.30968 125.806 7.06213C126.054 6.81458 126.193 6.47884 126.193 6.12875C126.193 5.77866 126.054 5.44292 125.806 5.19537C125.558 4.94782 125.223 4.80875 124.873 4.80875ZM119.001 6.3515C118.252 6.33981 117.508 6.47729 116.812 6.75594C116.117 7.0346 115.483 7.44885 114.949 7.97458C114.415 8.50032 113.991 9.12703 113.702 9.81823C113.412 10.5094 113.263 11.2513 113.263 12.0007C113.263 12.7501 113.412 13.4919 113.702 14.1831C113.991 14.8743 114.415 15.5011 114.949 16.0268C115.483 16.5525 116.117 16.9668 116.812 17.2454C117.508 17.5241 118.252 17.6616 119.001 17.6499C120.484 17.6267 121.899 17.0214 122.939 15.9645C123.98 14.9076 124.563 13.4839 124.563 12.0007C124.563 10.5175 123.98 9.09382 122.939 8.03691C121.899 6.97999 120.484 6.37464 119.001 6.3515ZM119.001 8.33288C119.974 8.33288 120.907 8.71923 121.594 9.40695C122.282 10.0947 122.668 11.0274 122.668 12C122.668 12.9726 122.282 13.9053 121.594 14.593C120.907 15.2808 119.974 15.6671 119.001 15.6671C118.029 15.6671 117.096 15.2808 116.408 14.593C115.721 13.9053 115.334 12.9726 115.334 12C115.334 11.0274 115.721 10.0947 116.408 9.40695C117.096 8.71923 118.029 8.33288 119.001 8.33288Z" fill="#23A6F0"/>
</g>
<g clip-path="url(#clip3_2865_4281)">
<path d="M158.911 21C167.213 21 171.755 14.0731 171.755 8.07669C171.755 7.88285 171.755 7.68625 171.746 7.49241C172.631 6.84789 173.394 6.04993 174 5.13592C173.174 5.50262 172.299 5.7443 171.403 5.85312C172.347 5.28495 173.054 4.391 173.392 3.3374C172.505 3.86647 171.535 4.23787 170.523 4.43534C169.842 3.70572 168.942 3.22237 167.961 3.06016C166.98 2.89795 165.974 3.06592 165.097 3.53807C164.221 4.01023 163.524 4.7602 163.113 5.67182C162.703 6.58345 162.603 7.60585 162.828 8.58066C161.033 8.49005 159.278 8.02057 157.675 7.20269C156.072 6.3848 154.657 5.23678 153.524 3.83307C152.948 4.83421 152.772 6.01843 153.032 7.14526C153.292 8.27209 153.968 9.25705 154.923 9.90013C154.208 9.87565 153.508 9.68215 152.88 9.33524V9.39754C152.881 10.4463 153.242 11.4625 153.901 12.2743C154.561 13.0861 155.478 13.6438 156.499 13.853C156.112 13.9605 155.711 14.014 155.31 14.0122C155.026 14.0131 154.744 13.9867 154.465 13.9333C154.754 14.8361 155.316 15.6254 156.072 16.1908C156.828 16.7561 157.741 17.0691 158.683 17.0859C157.083 18.3511 155.107 19.0373 153.072 19.034C152.714 19.0355 152.356 19.0147 152 18.9716C154.065 20.297 156.462 21.0008 158.911 21Z" fill="#23A6F0"/>
</g>
</g>
<defs>
<clipPath id="clip0_2865_4281">
<rect width="112" height="24" fill="white" transform="translate(62.5)"/>
</clipPath>
<clipPath id="clip1_2865_4281">
<rect width="24" height="24" fill="white" transform="translate(62.5)"/>
</clipPath>
<clipPath id="clip2_2865_4281">
<rect width="24" height="24" fill="white" transform="translate(106.5)"/>
</clipPath>
<clipPath id="clip3_2865_4281">
<rect width="24" height="19.7647" fill="white" transform="translate(150.5 2.11768)"/>
</clipPath>
</defs>
</svg>
