<svg width="1050" height="545" viewBox="0 0 1050 545" fill="none" xmlns="http://www.w3.org/2000/svg">
<g clip-path="url(#clip0_2865_4112)">
<g clip-path="url(#clip1_2865_4112)">
<path d="M9.344 130L8.304 127.584H3.616L2.576 130H-0.08L4.752 118.816H7.168L12 130H9.344ZM5.968 122.144L4.56 125.392H7.36L5.968 122.144ZM18.2939 130H13.3979V118.816H17.7499C18.5072 118.816 19.1579 118.907 19.7019 119.088C20.2565 119.269 20.6725 119.515 20.9499 119.824C21.4512 120.4 21.7019 121.051 21.7019 121.776C21.7019 122.651 21.4192 123.301 20.8539 123.728C20.6619 123.877 20.5285 123.973 20.4539 124.016C20.3792 124.048 20.2459 124.107 20.0539 124.192C20.7472 124.341 21.2965 124.656 21.7019 125.136C22.1179 125.605 22.3259 126.192 22.3259 126.896C22.3259 127.675 22.0592 128.363 21.5259 128.96C20.9072 129.653 19.8299 130 18.2939 130ZM15.8939 123.344H17.0779C17.7712 123.344 18.2832 123.269 18.6139 123.12C18.9552 122.971 19.1259 122.651 19.1259 122.16C19.1259 121.659 18.9712 121.328 18.6619 121.168C18.3525 121.008 17.8299 120.928 17.0939 120.928H15.8939V123.344ZM15.8939 127.888H17.6059C18.3205 127.888 18.8539 127.803 19.2059 127.632C19.5685 127.451 19.7499 127.104 19.7499 126.592C19.7499 126.069 19.5579 125.728 19.1739 125.568C18.8005 125.397 18.1979 125.312 17.3659 125.312H15.8939V127.888ZM33.0891 124.352C33.0891 123.349 32.7691 122.496 32.1291 121.792C31.4891 121.088 30.6998 120.736 29.7611 120.736C28.8331 120.736 28.0491 121.088 27.4091 121.792C26.7691 122.496 26.4491 123.349 26.4491 124.352C26.4491 125.344 26.7691 126.192 27.4091 126.896C28.0491 127.589 28.8331 127.936 29.7611 127.936C30.6998 127.936 31.4891 127.589 32.1291 126.896C32.7691 126.192 33.0891 125.344 33.0891 124.352ZM33.9371 128.464C32.8065 129.563 31.4145 130.112 29.7611 130.112C28.1078 130.112 26.7158 129.563 25.5851 128.464C24.4545 127.355 23.8891 125.979 23.8891 124.336C23.8891 122.693 24.4545 121.323 25.5851 120.224C26.7158 119.115 28.1078 118.56 29.7611 118.56C31.4145 118.56 32.8065 119.115 33.9371 120.224C35.0678 121.323 35.6331 122.693 35.6331 124.336C35.6331 125.979 35.0678 127.355 33.9371 128.464ZM40.8079 127.12C41.2239 127.632 41.7839 127.888 42.4879 127.888C43.1919 127.888 43.7465 127.632 44.1519 127.12C44.5679 126.597 44.7759 125.888 44.7759 124.992V118.816H47.2719V125.072C47.2719 126.693 46.8239 127.941 45.9279 128.816C45.0319 129.68 43.8852 130.112 42.4879 130.112C41.0905 130.112 39.9385 129.675 39.0319 128.8C38.1359 127.925 37.6879 126.683 37.6879 125.072V118.816H40.1839V124.992C40.1839 125.888 40.3919 126.597 40.8079 127.12ZM54.6995 120.976V130H52.2035V120.976H49.0355V118.816H57.8675V120.976H54.6995ZM69.2526 127.792C70.4793 127.792 71.482 127.307 72.2606 126.336L73.8606 127.984C72.5913 129.413 71.0926 130.128 69.3646 130.128C67.6473 130.128 66.2286 129.584 65.1086 128.496C63.9993 127.408 63.4446 126.037 63.4446 124.384C63.4446 122.72 64.01 121.333 65.1406 120.224C66.282 119.115 67.674 118.56 69.3166 118.56C71.1513 118.56 72.6873 119.259 73.9246 120.656L72.3726 122.416C71.5833 121.435 70.602 120.944 69.4286 120.944C68.49 120.944 67.6846 121.253 67.0126 121.872C66.3513 122.48 66.0206 123.307 66.0206 124.352C66.0206 125.387 66.3353 126.219 66.9646 126.848C67.594 127.477 68.3566 127.792 69.2526 127.792ZM84.261 124.352C84.261 123.349 83.941 122.496 83.301 121.792C82.661 121.088 81.8717 120.736 80.933 120.736C80.005 120.736 79.221 121.088 78.581 121.792C77.941 122.496 77.621 123.349 77.621 124.352C77.621 125.344 77.941 126.192 78.581 126.896C79.221 127.589 80.005 127.936 80.933 127.936C81.8717 127.936 82.661 127.589 83.301 126.896C83.941 126.192 84.261 125.344 84.261 124.352ZM85.109 128.464C83.9783 129.563 82.5863 130.112 80.933 130.112C79.2797 130.112 77.8877 129.563 76.757 128.464C75.6263 127.355 75.061 125.979 75.061 124.336C75.061 122.693 75.6263 121.323 76.757 120.224C77.8877 119.115 79.2797 118.56 80.933 118.56C82.5863 118.56 83.9783 119.115 85.109 120.224C86.2397 121.323 86.805 122.693 86.805 124.336C86.805 125.979 86.2397 127.355 85.109 128.464ZM99.0358 122.96L96.0118 129.072H94.5238L91.5158 122.96V130H89.0198V118.816H92.3958L95.2758 124.96L98.1718 118.816H101.532V130H99.0358V122.96ZM108.337 118.816C110.055 118.816 111.303 119.152 112.081 119.824C112.871 120.485 113.265 121.509 113.265 122.896C113.265 124.272 112.86 125.28 112.049 125.92C111.249 126.56 110.023 126.88 108.369 126.88H106.881V130H104.385V118.816H108.337ZM108.561 124.72C109.393 124.72 109.959 124.555 110.257 124.224C110.556 123.883 110.705 123.392 110.705 122.752C110.705 122.101 110.508 121.643 110.113 121.376C109.729 121.099 109.127 120.96 108.305 120.96H106.881V124.72H108.561ZM122.625 130L121.585 127.584H116.897L115.857 130H113.201L118.033 118.816H120.449L125.281 130H122.625ZM119.249 122.144L117.841 125.392H120.641L119.249 122.144ZM134.503 118.816H136.999V130H134.503L129.175 122.992V130H126.679V118.816H129.015L134.503 126.016V118.816ZM144.673 130H142.177V125.584L138.305 118.816H141.009L143.425 122.976L145.841 118.816H148.545L144.673 125.584V130Z" fill="#252B42"/>
<path d="M33.872 232L30.102 223.242H13.108L9.338 232H-0.29L17.226 191.458H25.984L43.5 232H33.872ZM21.634 203.522L16.53 215.296H26.68L21.634 203.522ZM66.1528 232H48.4048V191.458H64.1808C66.9261 191.458 69.2848 191.787 71.2568 192.444C73.2675 193.101 74.7755 193.991 75.7808 195.112C77.5981 197.2 78.5068 199.559 78.5068 202.188C78.5068 205.359 77.4821 207.717 75.4328 209.264C74.7368 209.805 74.2535 210.153 73.9828 210.308C73.7121 210.424 73.2288 210.637 72.5328 210.946C75.0461 211.487 77.0375 212.628 78.5068 214.368C80.0148 216.069 80.7688 218.196 80.7688 220.748C80.7688 223.571 79.8021 226.065 77.8688 228.23C75.6261 230.743 71.7208 232 66.1528 232ZM57.4528 207.872H61.7448C64.2581 207.872 66.1141 207.601 67.3128 207.06C68.5501 206.519 69.1688 205.359 69.1688 203.58C69.1688 201.763 68.6081 200.564 67.4868 199.984C66.3655 199.404 64.4708 199.114 61.8028 199.114H57.4528V207.872ZM57.4528 224.344H63.6588C66.2495 224.344 68.1828 224.035 69.4588 223.416C70.7735 222.759 71.4308 221.502 71.4308 219.646C71.4308 217.751 70.7348 216.514 69.3428 215.934C67.9895 215.315 65.8048 215.006 62.7888 215.006H57.4528V224.344ZM119.623 211.526C119.623 207.891 118.463 204.798 116.143 202.246C113.823 199.694 110.962 198.418 107.559 198.418C104.195 198.418 101.353 199.694 99.0331 202.246C96.7131 204.798 95.5531 207.891 95.5531 211.526C95.5531 215.122 96.7131 218.196 99.0331 220.748C101.353 223.261 104.195 224.518 107.559 224.518C110.962 224.518 113.823 223.261 116.143 220.748C118.463 218.196 119.623 215.122 119.623 211.526ZM122.697 226.432C118.598 230.415 113.552 232.406 107.559 232.406C101.566 232.406 96.5197 230.415 92.4211 226.432C88.3224 222.411 86.2731 217.423 86.2731 211.468C86.2731 205.513 88.3224 200.545 92.4211 196.562C96.5197 192.541 101.566 190.53 107.559 190.53C113.552 190.53 118.598 192.541 122.697 196.562C126.796 200.545 128.845 205.513 128.845 211.468C128.845 217.423 126.796 222.411 122.697 226.432ZM147.441 221.56C148.949 223.416 150.979 224.344 153.531 224.344C156.083 224.344 158.094 223.416 159.563 221.56C161.071 219.665 161.825 217.094 161.825 213.846V191.458H170.873V214.136C170.873 220.013 169.249 224.537 166.001 227.708C162.753 230.84 158.596 232.406 153.531 232.406C148.466 232.406 144.29 230.821 141.003 227.65C137.755 224.479 136.131 219.975 136.131 214.136V191.458H145.179V213.846C145.179 217.094 145.933 219.665 147.441 221.56ZM197.636 199.288V232H188.588V199.288H177.104V191.458H209.12V199.288H197.636ZM242.178 221.56C243.686 223.416 245.716 224.344 248.268 224.344C250.82 224.344 252.83 223.416 254.3 221.56C255.808 219.665 256.562 217.094 256.562 213.846V191.458H265.61V214.136C265.61 220.013 263.986 224.537 260.738 227.708C257.49 230.84 253.333 232.406 248.268 232.406C243.202 232.406 239.026 230.821 235.74 227.65C232.492 224.479 230.868 219.975 230.868 214.136V191.458H239.916V213.846C239.916 217.094 240.67 219.665 242.178 221.56ZM288.254 198.476C286.746 198.476 285.548 198.843 284.658 199.578C283.808 200.274 283.382 201.221 283.382 202.42C283.382 203.58 283.904 204.508 284.948 205.204C286.031 205.9 288.486 206.731 292.314 207.698C296.181 208.626 299.178 210.037 301.304 211.932C303.431 213.827 304.494 216.591 304.494 220.226C304.494 223.861 303.122 226.819 300.376 229.1C297.67 231.343 294.093 232.464 289.646 232.464C283.228 232.464 277.447 230.086 272.304 225.33L277.698 218.718C282.068 222.546 286.108 224.46 289.82 224.46C291.483 224.46 292.778 224.112 293.706 223.416C294.673 222.681 295.156 221.715 295.156 220.516C295.156 219.279 294.654 218.312 293.648 217.616C292.643 216.881 290.652 216.147 287.674 215.412C282.957 214.291 279.496 212.841 277.292 211.062C275.127 209.245 274.044 206.422 274.044 202.594C274.044 198.727 275.417 195.75 278.162 193.662C280.946 191.574 284.407 190.53 288.544 190.53C291.251 190.53 293.958 190.994 296.664 191.922C299.371 192.85 301.73 194.165 303.74 195.866L299.158 202.478C295.64 199.81 292.005 198.476 288.254 198.476Z" fill="#252B42"/>
<path d="M6.3 304.08L9.42 294.02H11.54L14.66 304.08L18.18 294.02H20.72L15.84 308H13.5L10.56 298.42H10.4L7.46 308H5.12L0.24 294.02H2.78L6.3 304.08ZM32.677 303.66H24.337C24.3904 304.433 24.7437 305.06 25.397 305.54C26.0504 306.007 26.797 306.24 27.637 306.24C28.9704 306.24 29.9837 305.82 30.677 304.98L31.957 306.38C30.8104 307.567 29.317 308.16 27.477 308.16C25.9837 308.16 24.7104 307.667 23.657 306.68C22.617 305.68 22.097 304.347 22.097 302.68C22.097 301 22.6304 299.667 23.697 298.68C24.7637 297.693 26.017 297.2 27.457 297.2C28.9104 297.2 30.1437 297.64 31.157 298.52C32.1704 299.387 32.677 300.587 32.677 302.12V303.66ZM24.337 301.9H30.437C30.437 301.007 30.157 300.32 29.597 299.84C29.037 299.36 28.3437 299.12 27.517 299.12C26.7037 299.12 25.9704 299.373 25.317 299.88C24.6637 300.373 24.337 301.047 24.337 301.9ZM43.2686 308H41.0286V293.16H43.2686V301.88L47.5886 297.36H50.4686L46.4286 301.58L50.7686 308H48.0486L44.8886 303.34L43.2686 304.98V308ZM55.0897 302.24V308H52.8497V297.36H55.0897V299.3C55.4497 298.647 55.943 298.133 56.5697 297.76C57.2097 297.387 57.8964 297.2 58.6297 297.2C59.8297 297.2 60.7964 297.567 61.5297 298.3C62.2764 299.033 62.6497 300.093 62.6497 301.48V308H60.4097V302.16C60.4097 300.2 59.5964 299.22 57.9697 299.22C57.1964 299.22 56.523 299.48 55.9497 300C55.3764 300.507 55.0897 301.253 55.0897 302.24ZM68.4594 305.2C69.0994 305.84 69.906 306.16 70.8794 306.16C71.8527 306.16 72.6527 305.84 73.2794 305.2C73.9194 304.547 74.2394 303.707 74.2394 302.68C74.2394 301.653 73.9194 300.82 73.2794 300.18C72.6527 299.527 71.8527 299.2 70.8794 299.2C69.906 299.2 69.0994 299.527 68.4594 300.18C67.8327 300.82 67.5194 301.653 67.5194 302.68C67.5194 303.707 67.8327 304.547 68.4594 305.2ZM74.8794 306.58C73.8127 307.633 72.4794 308.16 70.8794 308.16C69.2794 308.16 67.946 307.633 66.8794 306.58C65.8127 305.513 65.2794 304.213 65.2794 302.68C65.2794 301.147 65.8127 299.853 66.8794 298.8C67.946 297.733 69.2794 297.2 70.8794 297.2C72.4794 297.2 73.8127 297.733 74.8794 298.8C75.946 299.853 76.4794 301.147 76.4794 302.68C76.4794 304.213 75.946 305.513 74.8794 306.58ZM84.0695 308H81.5095L77.8295 297.36H80.1495L82.7895 305.4L85.4295 297.36H87.7495L90.3895 305.4L93.0295 297.36H95.3495L91.6695 308H89.1095L86.5895 300.72L84.0695 308ZM105.46 302.24V308H103.22V293.18H105.46V299.3C105.78 298.647 106.26 298.133 106.9 297.76C107.553 297.387 108.253 297.2 109 297.2C110.2 297.2 111.167 297.567 111.9 298.3C112.647 299.033 113.02 300.093 113.02 301.48V308H110.78V302.16C110.78 300.2 109.967 299.22 108.34 299.22C107.567 299.22 106.893 299.48 106.32 300C105.747 300.507 105.46 301.253 105.46 302.24ZM118.83 305.2C119.47 305.84 120.276 306.16 121.25 306.16C122.223 306.16 123.023 305.84 123.65 305.2C124.29 304.547 124.61 303.707 124.61 302.68C124.61 301.653 124.29 300.82 123.65 300.18C123.023 299.527 122.223 299.2 121.25 299.2C120.276 299.2 119.47 299.527 118.83 300.18C118.203 300.82 117.89 301.653 117.89 302.68C117.89 303.707 118.203 304.547 118.83 305.2ZM125.25 306.58C124.183 307.633 122.85 308.16 121.25 308.16C119.65 308.16 118.316 307.633 117.25 306.58C116.183 305.513 115.65 304.213 115.65 302.68C115.65 301.147 116.183 299.853 117.25 298.8C118.316 297.733 119.65 297.2 121.25 297.2C122.85 297.2 124.183 297.733 125.25 298.8C126.316 299.853 126.85 301.147 126.85 302.68C126.85 304.213 126.316 305.513 125.25 306.58ZM134.44 308H131.88L128.2 297.36H130.52L133.16 305.4L135.8 297.36H138.12L140.76 305.4L143.4 297.36H145.72L142.04 308H139.48L136.96 300.72L134.44 308ZM155.83 308H153.59V293.16H155.83V308ZM167.899 308H165.859V306.58C164.979 307.633 163.799 308.16 162.319 308.16C161.212 308.16 160.292 307.847 159.559 307.22C158.839 306.593 158.479 305.76 158.479 304.72C158.479 303.667 158.865 302.88 159.639 302.36C160.412 301.84 161.459 301.58 162.779 301.58H165.679V301.18C165.679 299.767 164.892 299.06 163.319 299.06C162.332 299.06 161.305 299.42 160.239 300.14L159.239 298.74C160.532 297.713 161.999 297.2 163.639 297.2C164.892 297.2 165.912 297.52 166.699 298.16C167.499 298.787 167.899 299.78 167.899 301.14V308ZM165.659 304.04V303.14H163.139C161.525 303.14 160.719 303.647 160.719 304.66C160.719 305.18 160.919 305.58 161.319 305.86C161.719 306.127 162.272 306.26 162.979 306.26C163.699 306.26 164.325 306.06 164.859 305.66C165.392 305.26 165.659 304.72 165.659 304.04ZM176.797 299.46C175.69 299.46 174.857 299.82 174.297 300.54C173.737 301.26 173.457 302.227 173.457 303.44V308H171.217V297.36H173.457V299.5C173.817 298.833 174.304 298.287 174.917 297.86C175.544 297.433 176.204 297.213 176.897 297.2L176.917 299.46C176.877 299.46 176.837 299.46 176.797 299.46ZM189.206 297.36V306.64C189.206 308.52 188.693 309.927 187.666 310.86C186.653 311.807 185.346 312.28 183.746 312.28C182.146 312.28 180.699 311.78 179.406 310.78L180.466 309.08C181.506 309.867 182.553 310.26 183.606 310.26C184.673 310.26 185.513 309.987 186.126 309.44C186.753 308.893 187.066 308.02 187.066 306.82V305.46C186.733 306.087 186.253 306.587 185.626 306.96C185.013 307.333 184.319 307.52 183.546 307.52C182.133 307.52 180.973 307.027 180.066 306.04C179.159 305.053 178.706 303.827 178.706 302.36C178.706 300.893 179.159 299.667 180.066 298.68C180.973 297.693 182.126 297.2 183.526 297.2C184.939 297.2 186.086 297.78 186.966 298.94V297.36H189.206ZM180.906 302.28C180.906 303.147 181.173 303.9 181.706 304.54C182.253 305.167 182.979 305.48 183.886 305.48C184.806 305.48 185.546 305.173 186.106 304.56C186.679 303.947 186.966 303.187 186.966 302.28C186.966 301.36 186.679 300.587 186.106 299.96C185.533 299.32 184.793 299 183.886 299C182.979 299 182.253 299.327 181.706 299.98C181.173 300.633 180.906 301.4 180.906 302.28ZM202.552 303.66H194.212C194.265 304.433 194.619 305.06 195.272 305.54C195.925 306.007 196.672 306.24 197.512 306.24C198.845 306.24 199.859 305.82 200.552 304.98L201.832 306.38C200.685 307.567 199.192 308.16 197.352 308.16C195.859 308.16 194.585 307.667 193.532 306.68C192.492 305.68 191.972 304.347 191.972 302.68C191.972 301 192.505 299.667 193.572 298.68C194.639 297.693 195.892 297.2 197.332 297.2C198.785 297.2 200.019 297.64 201.032 298.52C202.045 299.387 202.552 300.587 202.552 302.12V303.66ZM194.212 301.9H200.312C200.312 301.007 200.032 300.32 199.472 299.84C198.912 299.36 198.219 299.12 197.392 299.12C196.579 299.12 195.845 299.373 195.192 299.88C194.539 300.373 194.212 301.047 194.212 301.9ZM213.384 305.2C214.024 305.84 214.83 306.16 215.804 306.16C216.777 306.16 217.577 305.84 218.204 305.2C218.844 304.547 219.164 303.707 219.164 302.68C219.164 301.653 218.844 300.82 218.204 300.18C217.577 299.527 216.777 299.2 215.804 299.2C214.83 299.2 214.024 299.527 213.384 300.18C212.757 300.82 212.444 301.653 212.444 302.68C212.444 303.707 212.757 304.547 213.384 305.2ZM219.804 306.58C218.737 307.633 217.404 308.16 215.804 308.16C214.204 308.16 212.87 307.633 211.804 306.58C210.737 305.513 210.204 304.213 210.204 302.68C210.204 301.147 210.737 299.853 211.804 298.8C212.87 297.733 214.204 297.2 215.804 297.2C217.404 297.2 218.737 297.733 219.804 298.8C220.87 299.853 221.404 301.147 221.404 302.68C221.404 304.213 220.87 305.513 219.804 306.58ZM229.85 297.2C231.277 297.2 232.497 297.693 233.51 298.68C234.524 299.667 235.03 300.98 235.03 302.62C235.03 304.26 234.524 305.593 233.51 306.62C232.51 307.647 231.337 308.16 229.99 308.16C228.657 308.16 227.457 307.573 226.39 306.4V308H224.15V293.16H226.39V299.22C227.27 297.873 228.424 297.2 229.85 297.2ZM226.35 302.7C226.35 303.713 226.657 304.547 227.27 305.2C227.884 305.84 228.63 306.16 229.51 306.16C230.39 306.16 231.157 305.84 231.81 305.2C232.464 304.56 232.79 303.733 232.79 302.72C232.79 301.693 232.47 300.847 231.83 300.18C231.19 299.5 230.424 299.16 229.53 299.16C228.637 299.16 227.884 299.5 227.27 300.18C226.657 300.847 226.35 301.687 226.35 302.7ZM237.788 308.5V297.36H240.028V308.58C240.028 309.7 239.688 310.587 239.008 311.24C238.341 311.907 237.528 312.24 236.568 312.24C235.621 312.24 234.755 311.887 233.968 311.18L235.008 309.5C235.461 309.94 235.915 310.16 236.368 310.16C236.835 310.16 237.188 310.013 237.428 309.72C237.668 309.427 237.788 309.02 237.788 308.5ZM237.888 295.24C237.608 294.96 237.468 294.627 237.468 294.24C237.468 293.853 237.608 293.52 237.888 293.24C238.168 292.96 238.501 292.82 238.888 292.82C239.275 292.82 239.608 292.96 239.888 293.24C240.168 293.52 240.308 293.853 240.308 294.24C240.308 294.627 240.168 294.96 239.888 295.24C239.608 295.52 239.275 295.66 238.888 295.66C238.501 295.66 238.168 295.52 237.888 295.24ZM253.376 303.66H245.036C245.09 304.433 245.443 305.06 246.096 305.54C246.75 306.007 247.496 306.24 248.336 306.24C249.67 306.24 250.683 305.82 251.376 304.98L252.656 306.38C251.51 307.567 250.016 308.16 248.176 308.16C246.683 308.16 245.41 307.667 244.356 306.68C243.316 305.68 242.796 304.347 242.796 302.68C242.796 301 243.33 299.667 244.396 298.68C245.463 297.693 246.716 297.2 248.156 297.2C249.61 297.2 250.843 297.64 251.856 298.52C252.87 299.387 253.376 300.587 253.376 302.12V303.66ZM245.036 301.9H251.136C251.136 301.007 250.856 300.32 250.296 299.84C249.736 299.36 249.043 299.12 248.216 299.12C247.403 299.12 246.67 299.373 246.016 299.88C245.363 300.373 245.036 301.047 245.036 301.9ZM260.76 308.16C259.28 308.16 258.006 307.66 256.94 306.66C255.873 305.647 255.34 304.327 255.34 302.7C255.34 301.073 255.893 299.753 257 298.74C258.12 297.713 259.48 297.2 261.08 297.2C262.68 297.2 264.033 297.753 265.14 298.86L263.82 300.48C262.9 299.68 261.973 299.28 261.04 299.28C260.106 299.28 259.293 299.593 258.6 300.22C257.92 300.833 257.58 301.633 257.58 302.62C257.58 303.593 257.92 304.42 258.6 305.1C259.28 305.78 260.113 306.12 261.1 306.12C262.1 306.12 263.04 305.667 263.92 304.76L265.24 306.2C263.946 307.507 262.453 308.16 260.76 308.16ZM270.523 299.16V304.56C270.523 305.067 270.656 305.473 270.923 305.78C271.19 306.073 271.563 306.22 272.043 306.22C272.523 306.22 272.983 305.987 273.423 305.52L274.343 307.1C273.556 307.807 272.683 308.16 271.723 308.16C270.776 308.16 269.963 307.833 269.283 307.18C268.616 306.513 268.283 305.62 268.283 304.5V299.16H266.943V297.36H268.283V294.02H270.523V297.36H273.323V299.16H270.523ZM283.902 304.82C283.902 305.833 283.536 306.647 282.802 307.26C282.069 307.86 281.129 308.16 279.982 308.16C279.209 308.16 278.402 308.02 277.562 307.74C276.736 307.46 276.002 307.067 275.362 306.56L276.442 304.82C277.682 305.753 278.882 306.22 280.042 306.22C280.549 306.22 280.949 306.107 281.242 305.88C281.536 305.64 281.682 305.34 281.682 304.98C281.682 304.447 280.976 303.967 279.562 303.54C279.456 303.5 279.376 303.473 279.322 303.46C277.109 302.86 276.002 301.86 276.002 300.46C276.002 299.473 276.382 298.687 277.142 298.1C277.916 297.5 278.916 297.2 280.142 297.2C281.369 297.2 282.529 297.56 283.622 298.28L282.782 299.94C281.916 299.367 280.976 299.08 279.962 299.08C279.429 299.08 278.996 299.18 278.662 299.38C278.329 299.567 278.162 299.853 278.162 300.24C278.162 300.587 278.336 300.84 278.682 301C278.922 301.12 279.256 301.233 279.682 301.34C280.122 301.447 280.509 301.553 280.842 301.66C281.176 301.767 281.496 301.887 281.802 302.02C282.122 302.153 282.462 302.34 282.822 302.58C283.542 303.06 283.902 303.807 283.902 304.82ZM297.308 308H294.748L291.068 297.36H293.388L296.028 305.4L298.668 297.36H300.988L303.628 305.4L306.268 297.36H308.588L304.908 308H302.348L299.828 300.72L297.308 308ZM313.01 308H310.77V297.36H313.01V308ZM310.91 295.24C310.63 294.96 310.49 294.627 310.49 294.24C310.49 293.853 310.63 293.52 310.91 293.24C311.19 292.96 311.523 292.82 311.91 292.82C312.297 292.82 312.63 292.96 312.91 293.24C313.19 293.52 313.33 293.853 313.33 294.24C313.33 294.627 313.19 294.96 312.91 295.24C312.63 295.52 312.297 295.66 311.91 295.66C311.523 295.66 311.19 295.52 310.91 295.24ZM318.698 308H316.458V293.16H318.698V308ZM324.387 308H322.147V293.16H324.387V308ZM342.143 308H340.103V306.58C339.223 307.633 338.043 308.16 336.563 308.16C335.456 308.16 334.536 307.847 333.803 307.22C333.083 306.593 332.723 305.76 332.723 304.72C332.723 303.667 333.11 302.88 333.883 302.36C334.656 301.84 335.703 301.58 337.023 301.58H339.923V301.18C339.923 299.767 339.136 299.06 337.563 299.06C336.576 299.06 335.55 299.42 334.483 300.14L333.483 298.74C334.776 297.713 336.243 297.2 337.883 297.2C339.136 297.2 340.156 297.52 340.943 298.16C341.743 298.787 342.143 299.78 342.143 301.14V308ZM339.903 304.04V303.14H337.383C335.77 303.14 334.963 303.647 334.963 304.66C334.963 305.18 335.163 305.58 335.563 305.86C335.963 306.127 336.516 306.26 337.223 306.26C337.943 306.26 338.57 306.06 339.103 305.66C339.636 305.26 339.903 304.72 339.903 304.04ZM350.181 308.16C348.701 308.16 347.428 307.66 346.361 306.66C345.295 305.647 344.761 304.327 344.761 302.7C344.761 301.073 345.315 299.753 346.421 298.74C347.541 297.713 348.901 297.2 350.501 297.2C352.101 297.2 353.455 297.753 354.561 298.86L353.241 300.48C352.321 299.68 351.395 299.28 350.461 299.28C349.528 299.28 348.715 299.593 348.021 300.22C347.341 300.833 347.001 301.633 347.001 302.62C347.001 303.593 347.341 304.42 348.021 305.1C348.701 305.78 349.535 306.12 350.521 306.12C351.521 306.12 352.461 305.667 353.341 304.76L354.661 306.2C353.368 307.507 351.875 308.16 350.181 308.16ZM359.945 299.16V304.56C359.945 305.067 360.078 305.473 360.345 305.78C360.612 306.073 360.985 306.22 361.465 306.22C361.945 306.22 362.405 305.987 362.845 305.52L363.765 307.1C362.978 307.807 362.105 308.16 361.145 308.16C360.198 308.16 359.385 307.833 358.705 307.18C358.038 306.513 357.705 305.62 357.705 304.5V299.16H356.365V297.36H357.705V294.02H359.945V297.36H362.745V299.16H359.945ZM365.444 306.7C365.444 306.273 365.591 305.92 365.884 305.64C366.178 305.347 366.524 305.2 366.924 305.2C367.324 305.2 367.671 305.347 367.964 305.64C368.271 305.92 368.424 306.26 368.424 306.66C368.424 307.06 368.244 307.547 367.884 308.12L366.684 310.1H365.524L366.264 308.02C365.718 307.767 365.444 307.327 365.444 306.7ZM7.32 327.2C8.74667 327.2 9.96667 327.693 10.98 328.68C11.9933 329.667 12.5 330.98 12.5 332.62C12.5 334.26 11.9933 335.593 10.98 336.62C9.98 337.647 8.80667 338.16 7.46 338.16C6.12667 338.16 4.92667 337.573 3.86 336.4V338H1.62V323.16H3.86V329.22C4.74 327.873 5.89333 327.2 7.32 327.2ZM3.82 332.7C3.82 333.713 4.12667 334.547 4.74 335.2C5.35333 335.84 6.1 336.16 6.98 336.16C7.86 336.16 8.62667 335.84 9.28 335.2C9.93333 334.56 10.26 333.733 10.26 332.72C10.26 331.693 9.94 330.847 9.3 330.18C8.66 329.5 7.89333 329.16 7 329.16C6.10667 329.16 5.35333 329.5 4.74 330.18C4.12667 330.847 3.82 331.687 3.82 332.7ZM22.6975 333.12V327.36H24.9375V338H22.6975V336.06C22.3375 336.713 21.8375 337.227 21.1975 337.6C20.5708 337.973 19.8908 338.16 19.1575 338.16C17.9575 338.16 16.9842 337.793 16.2375 337.06C15.5042 336.327 15.1375 335.267 15.1375 333.88V327.36H17.3775V333.2C17.3775 335.16 18.1908 336.14 19.8175 336.14C20.5908 336.14 21.2642 335.887 21.8375 335.38C22.4108 334.86 22.6975 334.107 22.6975 333.12ZM31.1472 329.16V334.56C31.1472 335.067 31.2805 335.473 31.5472 335.78C31.8139 336.073 32.1872 336.22 32.6672 336.22C33.1472 336.22 33.6072 335.987 34.0472 335.52L34.9672 337.1C34.1805 337.807 33.3072 338.16 32.3472 338.16C31.4005 338.16 30.5872 337.833 29.9072 337.18C29.2405 336.513 28.9072 335.62 28.9072 334.5V329.16H27.5672V327.36H28.9072V324.02H31.1472V327.36H33.9472V329.16H31.1472ZM45.3948 329.16V334.56C45.3948 335.067 45.5282 335.473 45.7948 335.78C46.0615 336.073 46.4348 336.22 46.9148 336.22C47.3948 336.22 47.8548 335.987 48.2948 335.52L49.2148 337.1C48.4282 337.807 47.5548 338.16 46.5948 338.16C45.6482 338.16 44.8348 337.833 44.1548 337.18C43.4882 336.513 43.1548 335.62 43.1548 334.5V329.16H41.8148V327.36H43.1548V324.02H45.3948V327.36H48.1948V329.16H45.3948ZM53.4342 332.24V338H51.1942V323.18H53.4342V329.3C53.7542 328.647 54.2342 328.133 54.8742 327.76C55.5276 327.387 56.2276 327.2 56.9742 327.2C58.1742 327.2 59.1409 327.567 59.8742 328.3C60.6209 329.033 60.9942 330.093 60.9942 331.48V338H58.7542V332.16C58.7542 330.2 57.9409 329.22 56.3142 329.22C55.5409 329.22 54.8676 329.48 54.2942 330C53.7209 330.507 53.4342 331.253 53.4342 332.24ZM66.5639 338H64.3239V327.36H66.5639V338ZM64.4639 325.24C64.1839 324.96 64.0439 324.627 64.0439 324.24C64.0439 323.853 64.1839 323.52 64.4639 323.24C64.7439 322.96 65.0772 322.82 65.4639 322.82C65.8506 322.82 66.1839 322.96 66.4639 323.24C66.7439 323.52 66.8839 323.853 66.8839 324.24C66.8839 324.627 66.7439 324.96 66.4639 325.24C66.1839 325.52 65.8506 325.66 65.4639 325.66C65.0772 325.66 64.7439 325.52 64.4639 325.24ZM72.2522 332.24V338H70.0122V327.36H72.2522V329.3C72.6122 328.647 73.1055 328.133 73.7322 327.76C74.3722 327.387 75.0589 327.2 75.7922 327.2C76.9922 327.2 77.9589 327.567 78.6922 328.3C79.4389 329.033 79.8122 330.093 79.8122 331.48V338H77.5722V332.16C77.5722 330.2 76.7589 329.22 75.1322 329.22C74.3589 329.22 73.6855 329.48 73.1122 330C72.5389 330.507 72.2522 331.253 72.2522 332.24ZM92.9819 327.36V336.64C92.9819 338.52 92.4685 339.927 91.4419 340.86C90.4285 341.807 89.1219 342.28 87.5219 342.28C85.9219 342.28 84.4752 341.78 83.1819 340.78L84.2419 339.08C85.2819 339.867 86.3285 340.26 87.3819 340.26C88.4485 340.26 89.2885 339.987 89.9019 339.44C90.5285 338.893 90.8419 338.02 90.8419 336.82V335.46C90.5085 336.087 90.0285 336.587 89.4019 336.96C88.7885 337.333 88.0952 337.52 87.3219 337.52C85.9085 337.52 84.7485 337.027 83.8419 336.04C82.9352 335.053 82.4819 333.827 82.4819 332.36C82.4819 330.893 82.9352 329.667 83.8419 328.68C84.7485 327.693 85.9019 327.2 87.3019 327.2C88.7152 327.2 89.8619 327.78 90.7419 328.94V327.36H92.9819ZM84.6819 332.28C84.6819 333.147 84.9485 333.9 85.4819 334.54C86.0285 335.167 86.7552 335.48 87.6619 335.48C88.5819 335.48 89.3219 335.173 89.8819 334.56C90.4552 333.947 90.7419 333.187 90.7419 332.28C90.7419 331.36 90.4552 330.587 89.8819 329.96C89.3085 329.32 88.5685 329 87.6619 329C86.7552 329 86.0285 329.327 85.4819 329.98C84.9485 330.633 84.6819 331.4 84.6819 332.28ZM104.008 334.82C104.008 335.833 103.641 336.647 102.908 337.26C102.174 337.86 101.234 338.16 100.088 338.16C99.3145 338.16 98.5078 338.02 97.6678 337.74C96.8411 337.46 96.1078 337.067 95.4678 336.56L96.5478 334.82C97.7878 335.753 98.9878 336.22 100.148 336.22C100.654 336.22 101.054 336.107 101.348 335.88C101.641 335.64 101.788 335.34 101.788 334.98C101.788 334.447 101.081 333.967 99.6678 333.54C99.5611 333.5 99.4811 333.473 99.4278 333.46C97.2145 332.86 96.1078 331.86 96.1078 330.46C96.1078 329.473 96.4878 328.687 97.2478 328.1C98.0211 327.5 99.0211 327.2 100.248 327.2C101.474 327.2 102.634 327.56 103.728 328.28L102.888 329.94C102.021 329.367 101.081 329.08 100.068 329.08C99.5345 329.08 99.1011 329.18 98.7678 329.38C98.4345 329.567 98.2678 329.853 98.2678 330.24C98.2678 330.587 98.4411 330.84 98.7878 331C99.0278 331.12 99.3611 331.233 99.7878 331.34C100.228 331.447 100.614 331.553 100.948 331.66C101.281 331.767 101.601 331.887 101.908 332.02C102.228 332.153 102.568 332.34 102.928 332.58C103.648 333.06 104.008 333.807 104.008 334.82ZM114.913 335.2C115.553 335.84 116.36 336.16 117.333 336.16C118.307 336.16 119.107 335.84 119.733 335.2C120.373 334.547 120.693 333.707 120.693 332.68C120.693 331.653 120.373 330.82 119.733 330.18C119.107 329.527 118.307 329.2 117.333 329.2C116.36 329.2 115.553 329.527 114.913 330.18C114.287 330.82 113.973 331.653 113.973 332.68C113.973 333.707 114.287 334.547 114.913 335.2ZM121.333 336.58C120.267 337.633 118.933 338.16 117.333 338.16C115.733 338.16 114.4 337.633 113.333 336.58C112.267 335.513 111.733 334.213 111.733 332.68C111.733 331.147 112.267 329.853 113.333 328.8C114.4 327.733 115.733 327.2 117.333 327.2C118.933 327.2 120.267 327.733 121.333 328.8C122.4 329.853 122.933 331.147 122.933 332.68C122.933 334.213 122.4 335.513 121.333 336.58ZM127.92 332.24V338H125.68V327.36H127.92V329.3C128.28 328.647 128.773 328.133 129.4 327.76C130.04 327.387 130.727 327.2 131.46 327.2C132.66 327.2 133.627 327.567 134.36 328.3C135.107 329.033 135.48 330.093 135.48 331.48V338H133.24V332.16C133.24 330.2 132.427 329.22 130.8 329.22C130.027 329.22 129.353 329.48 128.78 330C128.207 330.507 127.92 331.253 127.92 332.24ZM153.118 338H151.078V336.58C150.198 337.633 149.018 338.16 147.538 338.16C146.431 338.16 145.511 337.847 144.778 337.22C144.058 336.593 143.698 335.76 143.698 334.72C143.698 333.667 144.085 332.88 144.858 332.36C145.631 331.84 146.678 331.58 147.998 331.58H150.898V331.18C150.898 329.767 150.111 329.06 148.538 329.06C147.551 329.06 146.525 329.42 145.458 330.14L144.458 328.74C145.751 327.713 147.218 327.2 148.858 327.2C150.111 327.2 151.131 327.52 151.918 328.16C152.718 328.787 153.118 329.78 153.118 331.14V338ZM150.878 334.04V333.14H148.358C146.745 333.14 145.938 333.647 145.938 334.66C145.938 335.18 146.138 335.58 146.538 335.86C146.938 336.127 147.491 336.26 148.198 336.26C148.918 336.26 149.545 336.06 150.078 335.66C150.611 335.26 150.878 334.72 150.878 334.04ZM169.705 334.82C169.705 335.833 169.338 336.647 168.605 337.26C167.871 337.86 166.931 338.16 165.785 338.16C165.011 338.16 164.205 338.02 163.365 337.74C162.538 337.46 161.805 337.067 161.165 336.56L162.245 334.82C163.485 335.753 164.685 336.22 165.845 336.22C166.351 336.22 166.751 336.107 167.045 335.88C167.338 335.64 167.485 335.34 167.485 334.98C167.485 334.447 166.778 333.967 165.365 333.54C165.258 333.5 165.178 333.473 165.125 333.46C162.911 332.86 161.805 331.86 161.805 330.46C161.805 329.473 162.185 328.687 162.945 328.1C163.718 327.5 164.718 327.2 165.945 327.2C167.171 327.2 168.331 327.56 169.425 328.28L168.585 329.94C167.718 329.367 166.778 329.08 165.765 329.08C165.231 329.08 164.798 329.18 164.465 329.38C164.131 329.567 163.965 329.853 163.965 330.24C163.965 330.587 164.138 330.84 164.485 331C164.725 331.12 165.058 331.233 165.485 331.34C165.925 331.447 166.311 331.553 166.645 331.66C166.978 331.767 167.298 331.887 167.605 332.02C167.925 332.153 168.265 332.34 168.625 332.58C169.345 333.06 169.705 333.807 169.705 334.82ZM174.682 332.24V338H172.442V327.36H174.682V329.3C175.002 328.647 175.482 328.133 176.122 327.76C176.775 327.387 177.475 327.2 178.222 327.2C179.902 327.2 181.042 327.893 181.642 329.28C182.695 327.893 184.009 327.2 185.582 327.2C186.782 327.2 187.749 327.567 188.482 328.3C189.229 329.033 189.602 330.093 189.602 331.48V338H187.362V332.16C187.362 330.2 186.549 329.22 184.922 329.22C184.162 329.22 183.495 329.467 182.922 329.96C182.362 330.44 182.069 331.147 182.042 332.08V338H179.802V332.16C179.802 331.147 179.622 330.407 179.262 329.94C178.902 329.46 178.335 329.22 177.562 329.22C176.789 329.22 176.115 329.48 175.542 330C174.969 330.507 174.682 331.253 174.682 332.24ZM201.535 338H199.495V336.58C198.615 337.633 197.435 338.16 195.955 338.16C194.849 338.16 193.929 337.847 193.195 337.22C192.475 336.593 192.115 335.76 192.115 334.72C192.115 333.667 192.502 332.88 193.275 332.36C194.049 331.84 195.095 331.58 196.415 331.58H199.315V331.18C199.315 329.767 198.529 329.06 196.955 329.06C195.969 329.06 194.942 329.42 193.875 330.14L192.875 328.74C194.169 327.713 195.635 327.2 197.275 327.2C198.529 327.2 199.549 327.52 200.335 328.16C201.135 328.787 201.535 329.78 201.535 331.14V338ZM199.295 334.04V333.14H196.775C195.162 333.14 194.355 333.647 194.355 334.66C194.355 335.18 194.555 335.58 194.955 335.86C195.355 336.127 195.909 336.26 196.615 336.26C197.335 336.26 197.962 336.06 198.495 335.66C199.029 335.26 199.295 334.72 199.295 334.04ZM207.094 338H204.854V323.16H207.094V338ZM212.782 338H210.542V323.16H212.782V338ZM229.498 334.82C229.498 335.833 229.132 336.647 228.398 337.26C227.665 337.86 226.725 338.16 225.578 338.16C224.805 338.16 223.998 338.02 223.158 337.74C222.332 337.46 221.598 337.067 220.958 336.56L222.038 334.82C223.278 335.753 224.478 336.22 225.638 336.22C226.145 336.22 226.545 336.107 226.838 335.88C227.132 335.64 227.278 335.34 227.278 334.98C227.278 334.447 226.572 333.967 225.158 333.54C225.052 333.5 224.972 333.473 224.918 333.46C222.705 332.86 221.598 331.86 221.598 330.46C221.598 329.473 221.978 328.687 222.738 328.1C223.512 327.5 224.512 327.2 225.738 327.2C226.965 327.2 228.125 327.56 229.218 328.28L228.378 329.94C227.512 329.367 226.572 329.08 225.558 329.08C225.025 329.08 224.592 329.18 224.258 329.38C223.925 329.567 223.758 329.853 223.758 330.24C223.758 330.587 223.932 330.84 224.278 331C224.518 331.12 224.852 331.233 225.278 331.34C225.718 331.447 226.105 331.553 226.438 331.66C226.772 331.767 227.092 331.887 227.398 332.02C227.718 332.153 228.058 332.34 228.418 332.58C229.138 333.06 229.498 333.807 229.498 334.82ZM236.956 338.16C235.476 338.16 234.202 337.66 233.136 336.66C232.069 335.647 231.536 334.327 231.536 332.7C231.536 331.073 232.089 329.753 233.196 328.74C234.316 327.713 235.676 327.2 237.276 327.2C238.876 327.2 240.229 327.753 241.336 328.86L240.016 330.48C239.096 329.68 238.169 329.28 237.236 329.28C236.302 329.28 235.489 329.593 234.796 330.22C234.116 330.833 233.776 331.633 233.776 332.62C233.776 333.593 234.116 334.42 234.796 335.1C235.476 335.78 236.309 336.12 237.296 336.12C238.296 336.12 239.236 335.667 240.116 334.76L241.436 336.2C240.142 337.507 238.649 338.16 236.956 338.16ZM252.501 338H250.461V336.58C249.581 337.633 248.401 338.16 246.921 338.16C245.814 338.16 244.894 337.847 244.161 337.22C243.441 336.593 243.081 335.76 243.081 334.72C243.081 333.667 243.468 332.88 244.241 332.36C245.014 331.84 246.061 331.58 247.381 331.58H250.281V331.18C250.281 329.767 249.494 329.06 247.921 329.06C246.934 329.06 245.908 329.42 244.841 330.14L243.841 328.74C245.134 327.713 246.601 327.2 248.241 327.2C249.494 327.2 250.514 327.52 251.301 328.16C252.101 328.787 252.501 329.78 252.501 331.14V338ZM250.261 334.04V333.14H247.741C246.128 333.14 245.321 333.647 245.321 334.66C245.321 335.18 245.521 335.58 245.921 335.86C246.321 336.127 246.874 336.26 247.581 336.26C248.301 336.26 248.928 336.06 249.461 335.66C249.994 335.26 250.261 334.72 250.261 334.04ZM258.059 338H255.819V323.16H258.059V338ZM271.408 333.66H263.068C263.121 334.433 263.474 335.06 264.128 335.54C264.781 336.007 265.528 336.24 266.368 336.24C267.701 336.24 268.714 335.82 269.408 334.98L270.688 336.38C269.541 337.567 268.048 338.16 266.208 338.16C264.714 338.16 263.441 337.667 262.388 336.68C261.348 335.68 260.828 334.347 260.828 332.68C260.828 331 261.361 329.667 262.428 328.68C263.494 327.693 264.748 327.2 266.188 327.2C267.641 327.2 268.874 327.64 269.888 328.52C270.901 329.387 271.408 330.587 271.408 332.12V333.66ZM263.068 331.9H269.168C269.168 331.007 268.888 330.32 268.328 329.84C267.768 329.36 267.074 329.12 266.248 329.12C265.434 329.12 264.701 329.373 264.048 329.88C263.394 330.373 263.068 331.047 263.068 331.9Z" fill="#737373"/>
<rect y="381" width="193" height="52" rx="5" fill="#23A6F0"/>
<path d="M47.8786 407.016H50.0766V410.488C49.1059 411.571 47.7619 412.112 46.0446 412.112C44.6072 412.112 43.3986 411.636 42.4186 410.684C41.4479 409.732 40.9626 408.533 40.9626 407.086C40.9626 405.63 41.4572 404.417 42.4466 403.446C43.4452 402.475 44.6446 401.99 46.0446 401.99C47.4539 401.99 48.6766 402.452 49.7126 403.376L48.5786 405.014C48.1399 404.631 47.7339 404.37 47.3606 404.23C46.9966 404.081 46.5999 404.006 46.1706 404.006C45.3399 404.006 44.6399 404.291 44.0706 404.86C43.5012 405.42 43.2166 406.162 43.2166 407.086C43.2166 408.01 43.4872 408.752 44.0286 409.312C44.5792 409.863 45.2326 410.138 45.9886 410.138C46.7446 410.138 47.3746 409.993 47.8786 409.704V407.016ZM58.5366 410.908C57.6872 411.711 56.6886 412.112 55.5406 412.112C54.4019 412.112 53.4592 411.762 52.7126 411.062C51.9659 410.353 51.5926 409.405 51.5926 408.22C51.5926 407.035 51.9706 406.092 52.7266 405.392C53.4919 404.692 54.3926 404.342 55.4286 404.342C56.4646 404.342 57.3419 404.655 58.0606 405.28C58.7886 405.905 59.1526 406.764 59.1526 407.856V408.976H53.6646C53.7299 409.387 53.9446 409.723 54.3086 409.984C54.6726 410.245 55.0832 410.376 55.5406 410.376C56.2779 410.376 56.8846 410.129 57.3606 409.634L58.5366 410.908ZM57.0246 407.478C56.9779 407.03 56.8099 406.685 56.5206 406.442C56.2312 406.199 55.8766 406.078 55.4566 406.078C55.0459 406.078 54.6679 406.204 54.3226 406.456C53.9772 406.708 53.7766 407.049 53.7206 407.478H57.0246ZM63.2908 405.98V409.354C63.2908 409.643 63.3655 409.872 63.5148 410.04C63.6642 410.199 63.8415 410.278 64.0468 410.278C64.4388 410.278 64.7702 410.101 65.0408 409.746L65.8248 411.216C65.1715 411.813 64.4808 412.112 63.7528 412.112C63.0342 412.112 62.4228 411.874 61.9188 411.398C61.4242 410.922 61.1768 410.273 61.1768 409.452V405.98H60.2948V404.468H61.1768V402.214H63.2908V404.468H65.1108V405.98H63.2908ZM80.9682 407.044C80.9682 408.061 80.7069 408.976 80.1842 409.788C79.6709 410.6 78.9756 411.207 78.0982 411.608C78.1822 411.748 78.3129 411.869 78.4902 411.972C78.6769 412.065 78.8682 412.112 79.0642 412.112C79.2602 412.112 79.4516 412.079 79.6382 412.014C79.8249 411.958 79.9742 411.888 80.0862 411.804C80.3289 411.608 80.5016 411.417 80.6042 411.23L81.7382 412.588C80.9356 413.437 79.9322 413.862 78.7282 413.862C78.1682 413.862 77.6176 413.708 77.0762 413.4C76.5349 413.092 76.1196 412.658 75.8302 412.098C74.3836 412.098 73.1656 411.617 72.1762 410.656C71.1869 409.685 70.6922 408.481 70.6922 407.044C70.6922 405.607 71.1869 404.407 72.1762 403.446C73.1656 402.475 74.3836 401.99 75.8302 401.99C77.2769 401.99 78.4949 402.475 79.4842 403.446C80.4736 404.407 80.9682 405.607 80.9682 407.044ZM78.7422 407.058C78.7422 406.181 78.4622 405.434 77.9022 404.818C77.3422 404.202 76.6516 403.894 75.8302 403.894C75.0182 403.894 74.3322 404.202 73.7722 404.818C73.2122 405.434 72.9322 406.181 72.9322 407.058C72.9322 407.926 73.2122 408.668 73.7722 409.284C74.3322 409.891 75.0182 410.194 75.8302 410.194C76.6516 410.194 77.3422 409.891 77.9022 409.284C78.4622 408.668 78.7422 407.926 78.7422 407.058ZM87.6803 408.528V404.468H89.7943V412H87.6803V411.006C87.1577 411.743 86.481 412.112 85.6503 412.112C84.829 412.112 84.1383 411.855 83.5783 411.342C83.0183 410.819 82.7383 410.049 82.7383 409.032V404.468H84.8523V408.57C84.8523 409.727 85.277 410.306 86.1263 410.306C86.5463 410.306 86.9103 410.157 87.2183 409.858C87.5263 409.55 87.6803 409.107 87.6803 408.528ZM93.6574 408.234C93.6574 408.85 93.8301 409.354 94.1754 409.746C94.5301 410.129 94.9781 410.32 95.5194 410.32C96.0701 410.32 96.5181 410.129 96.8634 409.746C97.2181 409.354 97.3954 408.85 97.3954 408.234C97.3954 407.618 97.2181 407.114 96.8634 406.722C96.5181 406.33 96.0701 406.134 95.5194 406.134C94.9781 406.134 94.5301 406.33 94.1754 406.722C93.8301 407.114 93.6574 407.618 93.6574 408.234ZM99.5094 408.234C99.5094 409.326 99.1314 410.245 98.3754 410.992C97.6194 411.739 96.6674 412.112 95.5194 412.112C94.3807 412.112 93.4334 411.739 92.6774 410.992C91.9214 410.245 91.5434 409.326 91.5434 408.234C91.5434 407.142 91.9214 406.223 92.6774 405.476C93.4334 404.72 94.3807 404.342 95.5194 404.342C96.6674 404.342 97.6194 404.72 98.3754 405.476C99.1314 406.223 99.5094 407.142 99.5094 408.234ZM103.638 405.98V409.354C103.638 409.643 103.713 409.872 103.862 410.04C104.012 410.199 104.189 410.278 104.394 410.278C104.786 410.278 105.118 410.101 105.388 409.746L106.172 411.216C105.519 411.813 104.828 412.112 104.1 412.112C103.382 412.112 102.77 411.874 102.266 411.398C101.772 410.922 101.524 410.273 101.524 409.452V405.98H100.642V404.468H101.524V402.214H103.638V404.468H105.458V405.98H103.638ZM114.022 410.908C113.173 411.711 112.174 412.112 111.026 412.112C109.888 412.112 108.945 411.762 108.198 411.062C107.452 410.353 107.078 409.405 107.078 408.22C107.078 407.035 107.456 406.092 108.212 405.392C108.978 404.692 109.878 404.342 110.914 404.342C111.95 404.342 112.828 404.655 113.546 405.28C114.274 405.905 114.638 406.764 114.638 407.856V408.976H109.15C109.216 409.387 109.43 409.723 109.794 409.984C110.158 410.245 110.569 410.376 111.026 410.376C111.764 410.376 112.37 410.129 112.846 409.634L114.022 410.908ZM112.51 407.478C112.464 407.03 112.296 406.685 112.006 406.442C111.717 406.199 111.362 406.078 110.942 406.078C110.532 406.078 110.154 406.204 109.808 406.456C109.463 406.708 109.262 407.049 109.206 407.478H112.51ZM127.3 402.214H129.484V412H127.3L122.638 405.868V412H120.454V402.214H122.498L127.3 408.514V402.214ZM133.568 408.234C133.568 408.85 133.74 409.354 134.086 409.746C134.44 410.129 134.888 410.32 135.43 410.32C135.98 410.32 136.428 410.129 136.774 409.746C137.128 409.354 137.306 408.85 137.306 408.234C137.306 407.618 137.128 407.114 136.774 406.722C136.428 406.33 135.98 406.134 135.43 406.134C134.888 406.134 134.44 406.33 134.086 406.722C133.74 407.114 133.568 407.618 133.568 408.234ZM139.42 408.234C139.42 409.326 139.042 410.245 138.286 410.992C137.53 411.739 136.578 412.112 135.43 412.112C134.291 412.112 133.344 411.739 132.588 410.992C131.832 410.245 131.454 409.326 131.454 408.234C131.454 407.142 131.832 406.223 132.588 405.476C133.344 404.72 134.291 404.342 135.43 404.342C136.578 404.342 137.53 404.72 138.286 405.476C139.042 406.223 139.42 407.142 139.42 408.234ZM144.963 412H142.793L140.231 404.468H142.401L143.871 409.018L145.341 404.468H147.371L148.841 409.018L150.311 404.468H152.495L149.933 412H147.749L146.363 407.898L144.963 412Z" fill="white"/>
</g>
</g>
<defs>
<clipPath id="clip0_2865_4112">
<rect width="1044" height="321" fill="white" transform="translate(0 112)"/>
</clipPath>
<clipPath id="clip1_2865_4112">
<rect width="599" height="321" fill="white" transform="translate(0 112)"/>
</clipPath>
</defs>
</svg>
