<svg width="300" height="52" viewBox="0 0 300 52" fill="none" xmlns="http://www.w3.org/2000/svg">
<g clip-path="url(#clip0_2865_4103)">
<g clip-path="url(#clip1_2865_4103)">
<path d="M2.08369 31V21.214H4.26769V29.054H8.43969V31H2.08369ZM11.615 27.234C11.615 27.85 11.7877 28.354 12.133 28.746C12.4877 29.1287 12.9357 29.32 13.477 29.32C14.0277 29.32 14.4757 29.1287 14.821 28.746C15.1757 28.354 15.353 27.85 15.353 27.234C15.353 26.618 15.1757 26.114 14.821 25.722C14.4757 25.33 14.0277 25.134 13.477 25.134C12.9357 25.134 12.4877 25.33 12.133 25.722C11.7877 26.114 11.615 26.618 11.615 27.234ZM17.467 27.234C17.467 28.326 17.089 29.2453 16.333 29.992C15.577 30.7387 14.625 31.112 13.477 31.112C12.3383 31.112 11.391 30.7387 10.635 29.992C9.87902 29.2453 9.50102 28.326 9.50102 27.234C9.50102 26.142 9.87902 25.2227 10.635 24.476C11.391 23.72 12.3383 23.342 13.477 23.342C14.625 23.342 15.577 23.72 16.333 24.476C17.089 25.2227 17.467 26.142 17.467 27.234ZM24.5048 27.08C24.5048 26.4733 24.3368 25.9973 24.0008 25.652C23.6648 25.3067 23.2495 25.134 22.7548 25.134C22.2601 25.134 21.8308 25.3067 21.4668 25.652C21.1121 25.9973 20.9348 26.4687 20.9348 27.066C20.9348 27.6633 21.1075 28.1487 21.4528 28.522C21.8075 28.886 22.2368 29.068 22.7408 29.068C23.2448 29.068 23.6648 28.886 24.0008 28.522C24.3368 28.158 24.5048 27.6773 24.5048 27.08ZM24.7988 29.726C24.1361 30.4633 23.3101 30.832 22.3208 30.832C21.3408 30.832 20.5101 30.5007 19.8288 29.838C19.1568 29.166 18.8208 28.2747 18.8208 27.164C18.8208 26.044 19.1661 25.1293 19.8568 24.42C20.5568 23.7013 21.3548 23.342 22.2508 23.342C23.1468 23.342 23.8888 23.7107 24.4768 24.448V23.454H26.5768V30.02C26.5768 30.692 26.4601 31.2893 26.2268 31.812C25.9935 32.3347 25.6808 32.7453 25.2888 33.044C24.5141 33.66 23.5995 33.968 22.5448 33.968C21.9848 33.968 21.4108 33.8747 20.8228 33.688C20.2441 33.5107 19.7355 33.254 19.2968 32.918L20.1088 31.336C20.7995 31.8587 21.5275 32.12 22.2928 32.12C23.0675 32.12 23.6788 31.9287 24.1268 31.546C24.5748 31.1633 24.7988 30.5567 24.7988 29.726ZM30.8647 31H28.7647V23.468H30.8647V31ZM28.9327 22.516C28.6994 22.2733 28.5827 21.9793 28.5827 21.634C28.5827 21.2887 28.6994 20.9993 28.9327 20.766C29.1754 20.5233 29.4694 20.402 29.8147 20.402C30.16 20.402 30.4494 20.5233 30.6827 20.766C30.9254 20.9993 31.0467 21.2887 31.0467 21.634C31.0467 21.9793 30.9254 22.2733 30.6827 22.516C30.4494 22.7493 30.16 22.866 29.8147 22.866C29.4694 22.866 29.1754 22.7493 28.9327 22.516ZM35.1526 26.8V31H33.0526V23.468H35.1526V24.308C35.7873 23.664 36.5013 23.342 37.2946 23.342C38.0879 23.342 38.7506 23.622 39.2826 24.182C39.8239 24.742 40.0946 25.4887 40.0946 26.422V31H37.9946V26.744C37.9946 25.5867 37.5699 25.008 36.7206 25.008C36.3006 25.008 35.9319 25.162 35.6146 25.47C35.3066 25.7687 35.1526 26.212 35.1526 26.8Z" fill="#23A6F0"/>
</g>
</g>
<g clip-path="url(#clip2_2865_4103)">
<rect x="86" width="214" height="52" rx="5" fill="#23A6F0"/>
<path d="M116.488 31H112.204V21.214H116.012C116.675 21.214 117.244 21.2933 117.72 21.452C118.205 21.6107 118.569 21.8253 118.812 22.096C119.251 22.6 119.47 23.1693 119.47 23.804C119.47 24.5693 119.223 25.1387 118.728 25.512C118.56 25.6427 118.443 25.7267 118.378 25.764C118.313 25.792 118.196 25.8433 118.028 25.918C118.635 26.0487 119.115 26.324 119.47 26.744C119.834 27.1547 120.016 27.668 120.016 28.284C120.016 28.9653 119.783 29.5673 119.316 30.09C118.775 30.6967 117.832 31 116.488 31ZM114.388 25.176H115.424C116.031 25.176 116.479 25.1107 116.768 24.98C117.067 24.8493 117.216 24.5693 117.216 24.14C117.216 23.7013 117.081 23.412 116.81 23.272C116.539 23.132 116.082 23.062 115.438 23.062H114.388V25.176ZM114.388 29.152H115.886C116.511 29.152 116.978 29.0773 117.286 28.928C117.603 28.7693 117.762 28.466 117.762 28.018C117.762 27.5607 117.594 27.262 117.258 27.122C116.931 26.9727 116.404 26.898 115.676 26.898H114.388V29.152ZM128.37 29.908C127.521 30.7107 126.522 31.112 125.374 31.112C124.236 31.112 123.293 30.762 122.546 30.062C121.8 29.3527 121.426 28.4053 121.426 27.22C121.426 26.0347 121.804 25.092 122.56 24.392C123.326 23.692 124.226 23.342 125.262 23.342C126.298 23.342 127.176 23.6547 127.894 24.28C128.622 24.9053 128.986 25.764 128.986 26.856V27.976H123.498C123.564 28.3867 123.778 28.7227 124.142 28.984C124.506 29.2453 124.917 29.376 125.374 29.376C126.112 29.376 126.718 29.1287 127.194 28.634L128.37 29.908ZM126.858 26.478C126.812 26.03 126.644 25.6847 126.354 25.442C126.065 25.1993 125.71 25.078 125.29 25.078C124.88 25.078 124.502 25.204 124.156 25.456C123.811 25.708 123.61 26.0487 123.554 26.478H126.858ZM134.313 29.25C135.013 29.25 135.643 28.9 136.203 28.2L137.449 29.6C136.478 30.608 135.428 31.112 134.299 31.112C133.169 31.112 132.213 30.7573 131.429 30.048C130.654 29.3293 130.267 28.396 130.267 27.248C130.267 26.0907 130.659 25.1527 131.443 24.434C132.236 23.706 133.174 23.342 134.257 23.342C134.798 23.342 135.344 23.454 135.895 23.678C136.455 23.902 136.945 24.2333 137.365 24.672L136.273 26.1C136.03 25.8107 135.731 25.5867 135.377 25.428C135.031 25.2693 134.686 25.19 134.341 25.19C133.79 25.19 133.314 25.372 132.913 25.736C132.521 26.0907 132.325 26.59 132.325 27.234C132.325 27.8687 132.521 28.3633 132.913 28.718C133.314 29.0727 133.781 29.25 134.313 29.25ZM140.606 27.234C140.606 27.85 140.779 28.354 141.124 28.746C141.479 29.1287 141.927 29.32 142.468 29.32C143.019 29.32 143.467 29.1287 143.812 28.746C144.167 28.354 144.344 27.85 144.344 27.234C144.344 26.618 144.167 26.114 143.812 25.722C143.467 25.33 143.019 25.134 142.468 25.134C141.927 25.134 141.479 25.33 141.124 25.722C140.779 26.114 140.606 26.618 140.606 27.234ZM146.458 27.234C146.458 28.326 146.08 29.2453 145.324 29.992C144.568 30.7387 143.616 31.112 142.468 31.112C141.329 31.112 140.382 30.7387 139.626 29.992C138.87 29.2453 138.492 28.326 138.492 27.234C138.492 26.142 138.87 25.2227 139.626 24.476C140.382 23.72 141.329 23.342 142.468 23.342C143.616 23.342 144.568 23.72 145.324 24.476C146.08 25.2227 146.458 26.142 146.458 27.234ZM155.134 26.94V31H153.02V26.884C153.02 26.2867 152.926 25.848 152.74 25.568C152.562 25.288 152.268 25.148 151.858 25.148C151.456 25.148 151.097 25.302 150.78 25.61C150.472 25.9087 150.318 26.352 150.318 26.94V31H148.218V23.468H150.318V24.322C150.896 23.6687 151.559 23.342 152.306 23.342C152.782 23.342 153.211 23.482 153.594 23.762C153.986 24.042 154.28 24.3827 154.476 24.784C154.765 24.3267 155.152 23.972 155.638 23.72C156.132 23.468 156.627 23.342 157.122 23.342C158.008 23.342 158.722 23.608 159.264 24.14C159.805 24.6627 160.076 25.4233 160.076 26.422V31H157.962V26.884C157.962 25.7267 157.537 25.148 156.688 25.148C156.268 25.148 155.904 25.302 155.596 25.61C155.288 25.9087 155.134 26.352 155.134 26.94ZM168.709 29.908C167.86 30.7107 166.861 31.112 165.713 31.112C164.575 31.112 163.632 30.762 162.885 30.062C162.139 29.3527 161.765 28.4053 161.765 27.22C161.765 26.0347 162.143 25.092 162.899 24.392C163.665 23.692 164.565 23.342 165.601 23.342C166.637 23.342 167.515 23.6547 168.233 24.28C168.961 24.9053 169.325 25.764 169.325 26.856V27.976H163.837C163.903 28.3867 164.117 28.7227 164.481 28.984C164.845 29.2453 165.256 29.376 165.713 29.376C166.451 29.376 167.057 29.1287 167.533 28.634L168.709 29.908ZM167.197 26.478C167.151 26.03 166.983 25.6847 166.693 25.442C166.404 25.1993 166.049 25.078 165.629 25.078C165.219 25.078 164.841 25.204 164.495 25.456C164.15 25.708 163.949 26.0487 163.893 26.478H167.197ZM181.329 31H179.355V30.09C178.814 30.7713 178.142 31.112 177.339 31.112C176.546 31.112 175.878 30.8833 175.337 30.426C174.796 29.9593 174.525 29.3433 174.525 28.578C174.525 27.8033 174.805 27.2247 175.365 26.842C175.925 26.4593 176.69 26.268 177.661 26.268H179.229V26.226C179.229 25.4233 178.804 25.022 177.955 25.022C177.591 25.022 177.204 25.0967 176.793 25.246C176.392 25.386 176.051 25.5633 175.771 25.778L174.833 24.42C175.822 23.7013 176.952 23.342 178.221 23.342C179.136 23.342 179.882 23.5707 180.461 24.028C181.04 24.4853 181.329 25.2087 181.329 26.198V31ZM179.215 28.13V27.766H177.899C177.059 27.766 176.639 28.0273 176.639 28.55C176.639 28.8207 176.737 29.0307 176.933 29.18C177.138 29.32 177.428 29.39 177.801 29.39C178.174 29.39 178.501 29.278 178.781 29.054C179.07 28.8207 179.215 28.5127 179.215 28.13ZM194.251 26.94V31H192.137V26.884C192.137 26.2867 192.044 25.848 191.857 25.568C191.68 25.288 191.386 25.148 190.975 25.148C190.574 25.148 190.214 25.302 189.897 25.61C189.589 25.9087 189.435 26.352 189.435 26.94V31H187.335V23.468H189.435V24.322C190.014 23.6687 190.676 23.342 191.423 23.342C191.899 23.342 192.328 23.482 192.711 23.762C193.103 24.042 193.397 24.3827 193.593 24.784C193.882 24.3267 194.27 23.972 194.755 23.72C195.25 23.468 195.744 23.342 196.239 23.342C197.126 23.342 197.84 23.608 198.381 24.14C198.922 24.6627 199.193 25.4233 199.193 26.422V31H197.079V26.884C197.079 25.7267 196.654 25.148 195.805 25.148C195.385 25.148 195.021 25.302 194.713 25.61C194.405 25.9087 194.251 26.352 194.251 26.94ZM207.827 29.908C206.977 30.7107 205.979 31.112 204.831 31.112C203.692 31.112 202.749 30.762 202.003 30.062C201.256 29.3527 200.883 28.4053 200.883 27.22C200.883 26.0347 201.261 25.092 202.017 24.392C202.782 23.692 203.683 23.342 204.719 23.342C205.755 23.342 206.632 23.6547 207.351 24.28C208.079 24.9053 208.443 25.764 208.443 26.856V27.976H202.955C203.02 28.3867 203.235 28.7227 203.599 28.984C203.963 29.2453 204.373 29.376 204.831 29.376C205.568 29.376 206.175 29.1287 206.651 28.634L207.827 29.908ZM206.315 26.478C206.268 26.03 206.1 25.6847 205.811 25.442C205.521 25.1993 205.167 25.078 204.747 25.078C204.336 25.078 203.958 25.204 203.613 25.456C203.267 25.708 203.067 26.0487 203.011 26.478H206.315ZM217.073 26.94V31H214.959V26.884C214.959 26.2867 214.866 25.848 214.679 25.568C214.502 25.288 214.208 25.148 213.797 25.148C213.396 25.148 213.036 25.302 212.719 25.61C212.411 25.9087 212.257 26.352 212.257 26.94V31H210.157V23.468H212.257V24.322C212.836 23.6687 213.498 23.342 214.245 23.342C214.721 23.342 215.15 23.482 215.533 23.762C215.925 24.042 216.219 24.3827 216.415 24.784C216.704 24.3267 217.092 23.972 217.577 23.72C218.072 23.468 218.566 23.342 219.061 23.342C219.948 23.342 220.662 23.608 221.203 24.14C221.744 24.6627 222.015 25.4233 222.015 26.422V31H219.901V26.884C219.901 25.7267 219.476 25.148 218.627 25.148C218.207 25.148 217.843 25.302 217.535 25.61C217.227 25.9087 217.073 26.352 217.073 26.94ZM228.464 23.342C229.379 23.342 230.177 23.7013 230.858 24.42C231.54 25.1293 231.88 26.044 231.88 27.164C231.88 28.284 231.53 29.222 230.83 29.978C230.13 30.734 229.332 31.112 228.436 31.112C227.55 31.112 226.812 30.7433 226.224 30.006V31H224.124V20.612H226.224V24.308C226.803 23.664 227.55 23.342 228.464 23.342ZM226.196 27.248C226.196 27.8547 226.364 28.354 226.7 28.746C227.046 29.1287 227.461 29.32 227.946 29.32C228.432 29.32 228.856 29.1287 229.22 28.746C229.584 28.354 229.766 27.8547 229.766 27.248C229.766 26.6413 229.589 26.1327 229.234 25.722C228.88 25.3113 228.455 25.106 227.96 25.106C227.466 25.106 227.046 25.3113 226.7 25.722C226.364 26.1233 226.196 26.632 226.196 27.248ZM240.173 29.908C239.323 30.7107 238.325 31.112 237.177 31.112C236.038 31.112 235.095 30.762 234.349 30.062C233.602 29.3527 233.229 28.4053 233.229 27.22C233.229 26.0347 233.607 25.092 234.363 24.392C235.128 23.692 236.029 23.342 237.065 23.342C238.101 23.342 238.978 23.6547 239.697 24.28C240.425 24.9053 240.789 25.764 240.789 26.856V27.976H235.301C235.366 28.3867 235.581 28.7227 235.945 28.984C236.309 29.2453 236.719 29.376 237.177 29.376C237.914 29.376 238.521 29.1287 238.997 28.634L240.173 29.908ZM238.661 26.478C238.614 26.03 238.446 25.6847 238.157 25.442C237.867 25.1993 237.513 25.078 237.093 25.078C236.682 25.078 236.304 25.204 235.959 25.456C235.613 25.708 235.413 26.0487 235.357 26.478H238.661ZM246.465 25.316C245.84 25.316 245.373 25.54 245.065 25.988C244.757 26.4267 244.603 27.01 244.603 27.738V31H242.503V23.468H244.603V24.462C244.874 24.154 245.21 23.8927 245.611 23.678C246.022 23.4633 246.437 23.3513 246.857 23.342L246.871 25.316H246.465Z" fill="white"/>
<g clip-path="url(#clip3_2865_4103)">
<path fill-rule="evenodd" clip-rule="evenodd" d="M263 26C263 25.8106 263.079 25.6289 263.22 25.495C263.36 25.3611 263.551 25.2858 263.75 25.2858H272.438L269.218 22.2207C269.077 22.0866 268.998 21.9047 268.998 21.7151C268.998 21.5254 269.077 21.3435 269.218 21.2094C269.359 21.0753 269.55 21 269.749 21C269.948 21 270.139 21.0753 270.28 21.2094L274.78 25.4944C274.85 25.5607 274.905 25.6395 274.943 25.7263C274.981 25.8131 275 25.9061 275 26C275 26.0939 274.981 26.1869 274.943 26.2737C274.905 26.3605 274.85 26.4393 274.78 26.5056L270.28 30.7906C270.139 30.9247 269.948 31 269.749 31C269.55 31 269.359 30.9247 269.218 30.7906C269.077 30.6565 268.998 30.4746 268.998 30.2849C268.998 30.0953 269.077 29.9134 269.218 29.7793L272.438 26.7142H263.75C263.551 26.7142 263.36 26.6389 263.22 26.505C263.079 26.3711 263 26.1894 263 26Z" fill="white"/>
</g>
</g>
<defs>
<clipPath id="clip0_2865_4103">
<rect width="41" height="22" fill="white" transform="translate(0 15)"/>
</clipPath>
<clipPath id="clip1_2865_4103">
<rect width="41" height="22" fill="white" transform="translate(0 15)"/>
</clipPath>
<clipPath id="clip2_2865_4103">
<rect width="214" height="52" fill="white" transform="translate(86)"/>
</clipPath>
<clipPath id="clip3_2865_4103">
<rect width="12" height="10" fill="white" transform="translate(263 21)"/>
</clipPath>
</defs>
</svg>
